HIERARCHY
ROOT Hips
{
	OFFSET 0.000000 0.000000 0.000000
	CHANNELS 6 Xposition Yposition Zposition Zrotation Yrotation Xrotation 
	JOINT LHipJoint
	{
		OFFSET 0.000000 0.000000 0.000000
		CHANNELS 3 Zrotation Yrotation Xrotation
		JOINT LeftUpLeg
		{
			OFFSET 1.363060 -1.794630 0.839290
			CHANNELS 3 Zrotation Yrotation Xrotation
			JOINT LeftLeg
			{
				OFFSET 2.448110 -6.726130 0.000000
				CHANNELS 3 Zrotation Yrotation Xrotation
				JOINT LeftFoot
				{
					OFFSET 2.562200 -7.039590 0.000000
					CHANNELS 3 Zrotation Yrotation Xrotation
					JOINT LeftToeBase
					{
						OFFSET 0.157640 -0.433110 2.322550
						CHANNELS 3 Zrotation Yrotation Xrotation
						End Site
						{
							OFFSET 0.000000 0.000000 0.000000
						}
					}
				}
			}
		}
	}
	JOINT RHipJoint
	{
		OFFSET 0.000000 0.000000 0.000000
		CHANNELS 3 Zrotation Yrotation Xrotation
		JOINT RightUpLeg
		{
			OFFSET -1.305520 -1.794630 0.839290
			CHANNELS 3 Zrotation Yrotation Xrotation
			JOINT RightLeg
			{
				OFFSET -2.542530 -6.985550 0.000000
				CHANNELS 3 Zrotation Yrotation Xrotation
				JOINT RightFoot
				{
					OFFSET -2.568260 -7.056230 0.000000
					CHANNELS 3 Zrotation Yrotation Xrotation
					JOINT RightToeBase
					{
						OFFSET -0.164730 -0.452590 2.363150
						CHANNELS 3 Zrotation Yrotation Xrotation
						End Site
						{
							OFFSET 0.000000 0.000000 0.000000
						}
					}
				}
			}
		}
	}
	JOINT LowerBack
	{
		OFFSET 0.000000 0.000000 0.000000
		CHANNELS 3 Zrotation Yrotation Xrotation
		JOINT Spine
		{
			OFFSET 0.028270 2.035590 -0.193380
			CHANNELS 3 Zrotation Yrotation Xrotation
			JOINT Spine1
			{
				OFFSET 0.056720 2.048850 -0.042750
				CHANNELS 3 Zrotation Yrotation Xrotation
				JOINT Neck
				{
					OFFSET 0.000000 0.000000 0.000000
					CHANNELS 3 Zrotation Yrotation Xrotation
					JOINT Neck1
					{
						OFFSET -0.054170 1.746240 0.172020
						CHANNELS 3 Zrotation Yrotation Xrotation
						JOINT Head
						{
							OFFSET 0.104070 1.761360 -0.123970
							CHANNELS 3 Zrotation Yrotation Xrotation
							End Site
							{
								OFFSET 0.000000 0.000000 0.000000
							}
						}
					}
				}
				JOINT LeftShoulder
				{
					OFFSET 0.000000 0.000000 0.000000
					CHANNELS 3 Zrotation Yrotation Xrotation
					JOINT LeftArm
					{
						OFFSET 3.362410 1.200890 -0.311210
						CHANNELS 3 Zrotation Yrotation Xrotation
						JOINT LeftForeArm
						{
							OFFSET 4.983000 -0.000000 -0.000000
							CHANNELS 3 Zrotation Yrotation Xrotation
							JOINT LeftHand
							{
								OFFSET 3.483560 -0.000000 -0.000000
								CHANNELS 3 Zrotation Yrotation Xrotation
								JOINT LeftFingerBase
								{
									OFFSET 0.000000 0.000000 0.000000
									CHANNELS 3 Zrotation Yrotation Xrotation
									JOINT LeftHandIndex1
									{
										OFFSET 0.715260 -0.000000 -0.000000
										CHANNELS 3 Zrotation Yrotation Xrotation
										End Site
										{
											OFFSET 0.000000 0.000000 0.000000
										}
									}
								}
								JOINT LThumb
								{
									OFFSET 0.000000 0.000000 0.000000
									CHANNELS 3 Zrotation Yrotation Xrotation
									End Site
									{
										OFFSET 0.000000 0.000000 0.000000
									}
								}
							}
						}
					}
				}
				JOINT RightShoulder
				{
					OFFSET 0.000000 0.000000 0.000000
					CHANNELS 3 Zrotation Yrotation Xrotation
					JOINT RightArm
					{
						OFFSET -3.136600 1.374050 -0.404650
						CHANNELS 3 Zrotation Yrotation Xrotation
						JOINT RightForeArm
						{
							OFFSET -5.241900 -0.000000 -0.000000
							CHANNELS 3 Zrotation Yrotation Xrotation
							JOINT RightHand
							{
								OFFSET -3.444170 -0.000000 -0.000000
								CHANNELS 3 Zrotation Yrotation Xrotation
								JOINT RightFingerBase
								{
									OFFSET 0.000000 0.000000 0.000000
									CHANNELS 3 Zrotation Yrotation Xrotation
									JOINT RightHandIndex1
									{
										OFFSET -0.622530 -0.000000 -0.000000
										CHANNELS 3 Zrotation Yrotation Xrotation
										End Site
										{
											OFFSET 0.000000 0.000000 0.000000
										}
									}
								}
								JOINT RThumb
								{
									OFFSET 0.000000 0.000000 0.000000
									CHANNELS 3 Zrotation Yrotation Xrotation
									End Site
									{
										OFFSET 0.000000 0.000000 0.000000
									}
								}
							}
						}
					}
				}
			}
		}
	}
}
MOTION
Frames: 12
Frame Time: 0.008333
5.196096 17.461354 0.671860 -174.496765 76.494958 -169.295490 5.026594 1.148677 -0.623836 -16.945472 -21.661730 -8.399915 -1.061163 8.232799 21.787525 -0.054124 3.267735 -8.637291 3.198700 -11.010000 -32.313700 -11.492540 -2.260142 -2.618395 36.392180 17.055109 12.392603 4.095601 -1.155285 7.201196 6.656173 -42.358626 -37.653353 -1.037600 -6.478700 18.179700 -1.098341 0.661036 1.754266 1.611678 1.137158 -2.642622 1.796254 -0.060069 3.425881 3.215133 -3.186814 -15.733497 7.913696 -3.796715 28.805478 2.810000 1.429900 24.550900 3.110723 -0.683924 0.085191 -24.882662 -19.425132 6.585776 131.814109 -50.380562 -97.423904 0.550500 -0.150529 -37.858549 36.325936 33.026214 21.976700 -7.125000 0.000000 0.000000 5.217700 69.476200 3.060100 -3.835619 1.236177 -1.721523 65.063379 3.332109 41.455026 -100.402260 60.260155 -69.051881 -0.085153 -0.474008 -15.571942 8.716864 9.705784 1.583800 7.125000 0.000000 0.000000 24.866500 -20.001400 16.468900 
5.181214 17.460862 0.676886 -174.287982 76.389952 -169.111618 5.028598 1.143270 -0.631141 -16.851385 -21.598976 -8.497386 -1.052945 8.234887 21.788892 -0.041973 3.104869 -8.519432 3.196400 -11.006500 -32.301700 -11.495837 -2.261784 -2.621450 36.435925 16.994642 12.309047 4.094621 -1.172272 7.222077 6.648667 -42.345398 -37.629785 -1.055200 -6.531600 18.334800 -1.087794 0.597245 2.000906 1.594893 1.062417 -2.602214 1.701874 -0.099326 3.413464 3.235367 -3.264964 -15.619368 8.003913 -3.933381 28.808345 2.856700 1.393300 24.486900 3.094056 -0.668251 0.093294 -25.479875 -19.521209 7.008764 132.439422 -50.060337 -97.879865 0.553996 -0.136300 -37.124291 36.497229 32.865928 22.001700 -7.125000 0.000000 0.000000 5.538800 69.344900 3.232500 -3.856942 1.239022 -1.714014 65.365226 3.479266 41.942183 -102.178218 60.109337 -70.529891 -0.106603 -0.462438 -14.421352 9.309113 9.384205 1.637200 7.125000 0.000000 0.000000 25.308800 -20.291100 16.643700 
5.165445 17.464114 0.681321 -174.030200 76.247949 -168.756094 5.031399 1.119580 -0.644358 -16.687345 -21.604501 -8.721723 -1.048140 8.243238 21.780037 -0.030858 2.955326 -8.400282 3.155800 -10.943100 -32.088100 -11.507112 -2.261398 -2.610703 36.468736 16.989870 12.069038 4.095390 -1.206235 7.251083 6.705197 -42.429335 -37.537880 -1.047800 -6.509300 18.269700 -1.018780 0.544562 2.139113 1.579498 0.998996 -2.583412 1.560860 -0.127547 3.378594 3.400299 -3.253898 -15.376158 8.042850 -3.992440 28.712049 2.797900 1.404400 24.194300 3.088996 -0.661115 0.100787 -26.049227 -19.646676 7.397382 133.137311 -49.696534 -98.385763 0.555062 -0.117855 -36.370547 37.022350 32.841138 22.355900 -7.125000 0.000000 0.000000 6.360700 69.470400 3.731500 -3.867296 1.230740 -1.710666 65.762912 3.556698 42.628472 -103.716261 59.948837 -71.800207 -0.085516 -0.458366 -13.870788 8.277840 9.135028 1.416800 7.125000 0.000000 0.000000 24.674900 -20.544900 15.973600 
5.149380 17.468845 0.684968 -173.846133 76.182387 -168.454127 5.033717 1.097260 -0.653819 -16.552350 -21.624285 -8.940746 -1.047600 8.252771 21.769767 -0.027050 2.892876 -8.321587 3.137800 -10.914800 -31.993000 -11.535855 -2.256136 -2.601115 36.480137 17.051902 11.842572 4.105730 -1.214023 7.218103 6.951346 -42.761183 -37.161715 -0.938700 -6.171200 17.281800 -1.006831 0.475842 2.262909 1.561354 0.916791 -2.575697 1.494459 -0.170901 3.339279 3.186042 -3.390586 -15.279614 8.313647 -4.128337 28.766817 3.066500 1.331400 24.234500 3.059768 -0.631540 0.106860 -26.653170 -19.677272 7.800128 133.862032 -49.317630 -98.900670 0.557329 -0.096247 -35.325904 38.031911 32.640807 22.974600 -7.125000 0.000000 0.000000 8.039400 69.561000 4.736600 -3.901233 1.248298 -1.701411 66.144782 3.683823 43.504211 -105.173789 59.768758 -72.995735 -0.054827 -0.459968 -13.208536 6.837399 9.063872 1.160200 7.125000 0.000000 0.000000 23.728500 -20.632200 15.182100 
5.134005 17.471309 0.689698 -173.721481 76.186397 -168.299159 5.033948 1.087659 -0.658426 -16.477925 -21.595866 -9.053813 -1.046329 8.257184 21.767497 -0.026366 2.866836 -8.267356 3.163900 -10.955800 -32.130900 -11.560470 -2.253113 -2.601180 36.488538 17.091875 11.798748 4.123526 -1.157818 7.061081 7.153174 -43.019874 -36.808351 -0.875900 -5.966600 16.687600 -1.052892 0.417582 2.492355 1.550838 0.847408 -2.560839 1.441659 -0.205374 3.242483 3.227769 -3.497371 -14.988997 8.389788 -4.312489 28.719245 3.063100 1.281100 24.006200 3.045096 -0.612376 0.115320 -27.335059 -19.649366 8.279089 134.633046 -48.905456 -99.445323 0.561997 -0.070981 -33.706598 39.252987 32.473936 23.771300 -7.125000 0.000000 0.000000 10.071200 69.751100 5.984200 -3.914314 1.250279 -1.694691 66.497436 3.870356 44.347466 -106.556826 59.579052 -74.131862 -0.014674 -0.466702 -12.102085 4.996322 9.122069 0.852000 7.125000 0.000000 0.000000 22.476100 -20.589000 14.258000 
5.120109 17.473772 0.698371 -173.397461 76.262611 -167.911153 5.027541 1.070414 -0.669626 -16.327202 -21.479476 -9.220360 -1.042904 8.262695 21.772183 -0.028694 2.860240 -8.197207 3.212000 -11.030600 -32.383100 -11.590791 -2.250310 -2.587283 36.560392 17.220681 11.772662 4.142701 -1.083748 6.852481 7.252068 -43.132412 -36.540449 -0.876400 -5.968500 16.693000 -1.108772 0.396438 2.688091 1.542876 0.827135 -2.557943 1.421046 -0.218273 3.128114 3.201365 -3.633572 -14.749437 8.548759 -4.502383 28.755133 3.170400 1.227000 23.936300 3.026947 -0.590896 0.120008 -28.023831 -19.648574 8.804110 135.424420 -48.467943 -99.998767 0.566182 -0.039628 -31.671355 40.658624 32.710801 24.951400 -7.125000 0.000000 0.000000 12.385700 70.439700 7.562400 -3.932058 1.259869 -1.689496 66.839563 4.074623 45.103912 -107.921271 59.371262 -75.255879 0.029280 -0.476410 -10.810622 3.008771 9.190647 0.515800 7.125000 0.000000 0.000000 21.105700 -20.519300 13.286400 
5.107198 17.479686 0.708523 -172.906986 76.389214 -167.244679 5.017606 1.033972 -0.691898 -16.089955 -21.412431 -9.475450 -1.043325 8.275024 21.777086 -0.039691 2.951500 -8.160860 3.222500 -11.046800 -32.437700 -11.639941 -2.244250 -2.558562 36.677929 17.475987 11.644422 4.164807 -1.019403 6.637046 7.401295 -43.319000 -36.189954 -0.857600 -5.905700 16.511100 -1.159420 0.418632 2.745550 1.539155 0.863563 -2.556676 1.429310 -0.206807 3.068696 3.126121 -3.804713 -14.558198 8.746216 -4.744590 28.757084 3.305900 1.143500 23.845600 3.008475 -0.568996 0.122546 -28.718732 -19.803414 9.338276 136.175912 -48.036990 -100.518727 0.569247 -0.005147 -29.627007 42.234028 33.166030 26.429900 -7.125000 0.000000 0.000000 15.149200 71.423600 9.601300 -3.955597 1.272469 -1.682178 67.201648 4.272923 45.690871 -109.384012 59.139400 -76.465688 0.052221 -0.480078 -9.153747 1.862280 9.075716 0.313500 7.125000 0.000000 0.000000 20.325300 -20.619100 12.675100 
5.092217 17.484811 0.714042 -172.527338 76.488572 -166.692501 5.012458 0.998098 -0.709511 -15.897511 -21.478371 -9.698913 -1.046779 8.293839 21.789068 -0.054353 3.099188 -8.172396 3.197500 -11.008200 -32.307400 -11.691051 -2.237377 -2.540251 36.764510 17.674571 11.556936 4.193820 -0.917384 6.339264 7.635581 -43.619714 -35.710610 -0.807500 -5.734900 16.017200 -1.197417 0.429615 2.813733 1.541331 0.884295 -2.549647 1.458388 -0.203943 3.023018 2.964221 -3.989843 -14.390745 8.983172 -4.981792 28.755573 3.494800 1.043800 23.771000 2.987648 -0.544359 0.126839 -29.438695 -19.999402 9.801564 136.911978 -47.601024 -101.028661 0.575234 0.027535 -27.806541 43.659483 33.522170 27.774100 -7.125000 0.000000 0.000000 17.873700 72.251600 11.681400 -3.981493 1.289565 -1.671925 67.507436 4.541478 46.170002 -110.809350 58.903154 -77.650220 0.051735 -0.469350 -6.774793 1.668395 8.573349 0.263000 7.125000 0.000000 0.000000 20.249400 -21.099700 12.383900 
5.078222 17.486880 0.718083 -172.234228 76.592339 -166.272676 5.008069 0.969844 -0.721986 -15.752958 -21.560955 -9.861167 -1.048924 8.314720 21.814583 -0.068618 3.252855 -8.214758 3.187900 -10.993200 -32.257000 -11.734065 -2.232182 -2.530194 36.842087 17.817559 11.577667 4.224519 -0.780200 5.978349 7.822488 -43.852490 -35.280494 -0.760400 -5.568800 15.538400 -1.268732 0.427287 2.918405 1.551549 0.885113 -2.539575 1.510228 -0.209851 2.971958 2.911234 -4.151821 -14.217139 9.063225 -5.205529 28.776926 3.537400 0.964500 23.714500 2.974807 -0.527684 0.131711 -30.107215 -20.132804 10.105141 137.637239 -47.157996 -101.536761 0.584161 0.056295 -26.274163 44.728504 33.806454 28.812400 -7.125000 0.000000 0.000000 20.063300 72.885000 13.417200 -3.993471 1.295901 -1.665839 67.743406 4.867466 46.697074 -111.984872 58.697318 -78.627286 0.045648 -0.453514 -3.701571 1.693947 8.002220 0.246900 7.125000 0.000000 0.000000 20.334700 -21.651200 12.168700 
5.067381 17.488556 0.723898 -171.949873 76.733498 -165.857487 5.001600 0.942198 -0.737414 -15.613268 -21.614757 -10.008627 -1.049825 8.338063 21.851505 -0.083633 3.419268 -8.282489 3.181000 -10.982400 -32.220600 -11.771399 -2.225880 -2.516705 36.920103 17.997089 11.601339 4.248579 -0.663196 5.668518 7.929230 -43.981270 -34.980547 -0.730100 -5.459400 15.223500 -1.369922 0.442708 2.968340 1.553807 0.909738 -2.523901 1.550971 -0.204442 2.963316 2.947411 -4.320431 -14.069811 9.065134 -5.467262 28.816955 3.498500 0.888500 23.686500 2.962894 -0.513343 0.136455 -30.670729 -20.255115 10.305618 138.391139 -46.683935 -102.067277 0.594135 0.083128 -25.017210 45.509152 34.111519 29.638500 -7.125000 0.000000 0.000000 21.766700 73.446400 14.845100 -4.002156 1.295029 -1.662644 67.968452 5.184161 47.197348 -112.991970 58.509974 -79.455675 0.042852 -0.450736 -0.354765 1.419827 7.930127 0.201200 7.125000 0.000000 0.000000 20.141800 -21.723600 12.001700 
5.057427 17.490429 0.729022 -171.539253 76.866720 -165.302183 4.995380 0.909226 -0.758826 -15.441255 -21.627681 -10.193179 -1.047496 8.365660 21.900311 -0.099482 3.576797 -8.312395 3.191500 -10.998700 -32.275600 -11.814627 -2.221316 -2.499531 37.026400 18.197226 11.589357 4.272180 -0.564021 5.393428 8.074127 -44.176414 -34.686437 -0.699100 -5.344700 14.894300 -1.421610 0.466481 2.962071 1.548137 0.948177 -2.500225 1.577021 -0.195694 3.013100 2.812245 -4.541054 -14.032037 9.237169 -5.760546 28.912303 3.662200 0.777100 23.816200 2.937541 -0.488698 0.142213 -31.137199 -20.408093 10.493935 139.161007 -46.190185 -102.602303 0.601243 0.113013 -23.971553 46.504272 34.512984 30.727900 -7.125000 0.000000 0.000000 24.122200 74.175300 16.868200 -4.027463 1.305680 -1.655078 68.142438 5.473739 47.607083 -114.043579 58.296195 -80.308030 0.044452 -0.473462 2.460284 0.623210 8.682242 0.088900 7.125000 0.000000 0.000000 19.476800 -20.995500 11.899200 
5.046684 17.492794 0.733162 -171.035631 76.918732 -164.657585 4.992406 0.872874 -0.784434 -15.235706 -21.620567 -10.417754 -1.040490 8.395278 21.953317 -0.109503 3.655711 -8.274872 3.199000 -11.010500 -32.315300 -11.845851 -2.220561 -2.481196 37.145536 18.339280 11.550030 4.292337 -0.475252 5.137627 8.126464 -44.258784 -34.584503 -0.717400 -5.412800 15.089700 -1.401609 0.479677 2.960378 1.547458 0.972282 -2.468453 1.571136 -0.192897 3.078850 2.740745 -4.714949 -13.951831 9.381580 -6.018166 28.921664 3.762400 0.681600 23.793900 2.919873 -0.470698 0.149606 -31.498584 -20.627957 10.657065 139.868987 -45.723386 -103.089969 0.605090 0.143016 -23.173425 47.612391 34.960451 31.973000 -7.125000 0.000000 0.000000 27.005800 74.979400 19.402300 -4.049585 1.310755 -1.646314 68.248241 5.714490 48.007342 -115.323542 58.015102 -81.344902 0.055199 -0.514950 3.934219 -0.668890 9.849301 -0.136500 7.125000 0.000000 0.000000 18.433900 -19.843200 11.696700 
